<svg width="24" height="24" version="1.1" xmlns="http://www.w3.org/2000/svg">
		<g fill="none" stroke="#fffffe" stroke-width="1.6">
				<path d="m11 3h2v6h-2z" color="#fffffe"/>
				<path d="m20 5v13h-3l5e-4-1.5001 1.4995 1e-4v-10l-3.4999.000149.000125-1.5001z" color="#fffffe"/>
				<path d="m4 5v13h5v3l7-3.75-7-3.75 1e-4 2.9999-3.5001 1e-4v-10l3.5 1e-4v-1.5001z" color="#fffffe"/>
		</g>
		<g fill="#2d2d2e">
				<path d="m11 3h2v6h-2z" color="#fffffe"/>
				<path d="m20 5v13h-3l5e-4-1.5001 1.4995 1e-4v-10l-3.4999.000149.000125-1.5001z" color="#fffffe"/>
				<path d="m4 5v13h5v3l7-3.75-7-3.75 1e-4 2.9999-3.5001 1e-4v-10l3.5 1e-4v-1.5001z" color="#fffffe"/>
		</g>
</svg>
